<svg xmlns="http://www.w3.org/2000/svg" width="113.2" height="96.4" xml:space="preserve" overflow="visible"><path d="M67 91.4c-3.3.8-6.8 1.2-10.3 1.2-3.3 0-6.6-.4-9.7-1 2.2.4 4.4.7 6.7.8h3c.9 0 1.7 0 2.5-.1h.3c2.5-.1 5.1-.4 7.5-.9z" fill="#362a4f"/><path d="M109.2 39.8c0 9-2.3 17.5-6.3 25-1-.7-2.2-.9-3.4-.7 2.4-5.6 3.7-11.7 3.7-18.1 0-7.6-1.8-14.8-5.1-21.2l7.9-3.2c2.2 5.7 3.2 11.9 3.2 18.2z" fill="#fc6"/><path d="M100.7 68.3c-.3.5-.6.9-.9 1.4-2.7 3.9-5.9 7.4-9.5 10.4-.2.2-.4.3-.6.5-.3.3-.7.5-1 .8-.5.4-1 .8-1.5 1.1-.2.1-.3.2-.5.4-1.2.8-2.4 1.6-3.7 2.3-.3.1-.5.3-.7.4-.3.2-.7.4-1 .6l-1.8.9c-.1.1-.3.1-.4.2-.6.3-1.2.6-1.8.8-.1 0-.2.1-.4.2-4.6 1.9-9.6 3.2-14.7 3.8h-.4c-.7.1-1.4.1-2.1.2h-.6c-.8 0-1.7.1-2.5.1h-3.1c-16.7-.9-31.3-9.7-40.3-22.6-.1-.1-.2-.3-.3-.4s-.1-.2 0-.3.2-.1.2-.1c.1 0 .1 0 .2.1 1 .8 2.1 1.1 3.2 1.1.3 0 .6 0 .9-.1h.2c.3 0 .5-.1.8-.2h.1l.9-.3h.1c.3-.1.7-.3 1-.5 2.3-1.2 4.7-3.3 7.2-5.8 5.8 10 16.6 16.7 29 16.7 12.5 0 23.5-6.9 29.2-17.2 2.4 2.3 4.7 4.3 6.9 5.4.3.2.7.3 1 .5h.1l.9.3h.2c.3.1.5.1.8.2h.2c1.5.2 2.9-.1 4.2-1.1.1 0 .2-.1.4 0s.2.1.1.2z" fill="#e8a812"/><path d="M10 45.9c0 6.8 1.5 13.2 4.1 19-1.1-.2-2.3.1-3.2.8C6.5 58 4 49.2 4 39.8c0-6.3 1.1-12.5 3.3-18.3l7.9 3.2C11.9 31.1 10 38.3 10 45.9z" fill="#fc6"/><path d="M86.4 46.4c0 16.2-13.2 29.4-29.4 29.4S27.6 62.6 27.6 46.4c0-15.1 11.4-27.5 26-29.2.5-.1 1.1-.1 1.6-.1h.1c.6 0 1.1-.1 1.7-.1h1.4c.5 0 .9.1 1.4.1 14.9 1.4 26.6 14 26.6 29.3z" fill="#ffd283"/><path d="M99.2 45.9c0 6.7-1.6 13-4.3 18.6-2-1-4.4-3.2-7-5.7 1.5-3.8 2.4-8 2.4-12.4 0-16.8-12.5-30.8-28.7-33.1l4.5-8.8C85.4 8.8 99.2 26 99.2 45.9zm-75.7.5c0 4.6.9 9 2.6 12.9-2.7 2.7-5.3 5.1-7.3 6.1C15.7 59.6 14 53 14 45.9 14 26 27.8 8.8 47.1 4.5l4.5 8.9c-15.9 2.5-28.1 16.4-28.1 33z" fill="#ffbe2c"/><path d="M80.5 26.1s.2 41.6-36.6 47.4l6.6 4h11.2l8-1.7 8.3-6.1 6-7.9 3.8-7.9.6-7.6L86.9 35l-6.4-8.9z" fill="#e8bf78"/><path d="M93.3 24.4c2.6 5.5 4 11.7 4 18.1 0 6.7-1.6 13-4.3 18.6-1.4-.7-3-1.9-4.7-3.5-.2.4-.3.9-.5 1.3 2.6 2.5 5 4.7 7 5.7 2.7-5.6 4.3-11.9 4.3-18.6.1-7.9-2-15.3-5.8-21.6z" fill="#e8ad28"/><path d="M100.7 68c-.2-.2-.3-.1-.4 0-1.3.9-2.7 1.3-4.2 1.1h-.2c-.3 0-.5-.1-.8-.2h-.2l-.9-.3h-.1c-.3-.1-.6-.3-1-.5-.9-.5-1.8-1.1-2.8-1.8-2.6 3.6-5.6 6.9-9 9.7-.2.2-.4.3-.6.5-.3.3-.7.5-1 .8-.5.4-1 .8-1.5 1.1-.2.1-.3.2-.5.4-1.2.8-2.4 1.6-3.7 2.3-.3.1-.5.3-.7.4-.3.2-.7.4-1 .6l-1.8.9c-.1.1-.3.1-.4.2-.6.3-1.2.6-1.8.8-.1 0-.2.1-.4.2-4.6 1.9-9.6 3.2-14.7 3.8h-.4c-.6-.1-1.2 0-1.9 0h-.6c-.8 0-1.7.1-2.5.1h-3.1c-5.1-.3-10-1.3-14.6-3 7 4.2 15.1 6.7 23.7 7.2h3.1c.9 0 1.7 0 2.5-.1h.6c.7 0 1.4-.1 2.1-.2h.4c5.2-.5 10.1-1.8 14.7-3.8.1 0 .2-.1.4-.2.6-.3 1.2-.5 1.8-.8.1-.1.3-.1.4-.2l1.8-.9c.3-.2.7-.4 1-.6.3-.1.5-.3.7-.4 1.3-.8 2.5-1.5 3.7-2.3.2-.1.3-.2.5-.4.5-.4 1-.8 1.5-1.1.3-.3.7-.5 1-.8.2-.2.4-.3.6-.5 3.6-3 6.8-6.5 9.5-10.4.3-.5.6-1 .9-1.4l-.1-.2z" fill="#d39911"/><path d="m106 21.5-2.4 1c1.4 4.8 2.1 9.8 2.1 14.9 0 7-1.4 13.6-3.8 19.7-.6 2.4-1.4 4.8-2.3 7 1.2-.3 2.4 0 3.4.7 4-7.4 6.3-15.9 6.3-25-.1-6.3-1.1-12.5-3.3-18.3z" fill="#e8ba5d"/><path d="M31.2 49.4c0-15.1 11.4-27.5 26-29.2.5-.1 1.1-.1 1.6-.1h.2c.6 0 1.1-.1 1.7-.1h1.4c.5 0 .9.1 1.4.1 5 .5 9.6 2.2 13.6 4.9-4.6-4.4-10.7-7.2-17.3-7.9-.5 0-.9-.1-1.4-.1H57c-.6 0-1.1 0-1.7.1h-.1c-.5 0-1.1.1-1.6.1-14.6 1.7-26 14.2-26 29.2 0 10.2 5.2 19.2 13 24.4-5.8-5.3-9.4-13-9.4-21.4z" fill="#ffe6bb"/><ellipse transform="rotate(-26.504 53.808 31.497)" cx="53.81" cy="31.5" rx="10.2" ry="4.6" fill="#ffe6bb"/><circle cx="43.5" cy="43" r="3.4" fill="#ffe6bb"/><path d="M15.8 49.3c0-19.9 13.8-37.1 33.1-41.4l-1.7-3.3C27.8 8.8 14 26 14 45.9c0 7 1.7 13.7 4.8 19.5.1 0 .1-.1.2-.1-2.1-4.9-3.2-10.3-3.2-16z" fill="#ffdb8b"/><path d="M5.1 42.6c0-6.3 1.1-12.5 3.3-18.3l5.9 2.4c.3-.7.6-1.3 1-2l-7.9-3.2C5.1 27.3 4 33.4 4 39.8 4 47 5.5 53.8 8.1 60c-2-5.5-3-11.3-3-17.4zM14 64.9c-.1-.3-.2-.7-.4-1 .2.4.3.7.4 1z" fill="#ffe3ab"/><path d="M15.5 72c-.1-.1-.2-.3-.3-.4s-.1-.2 0-.3c.1-.1.2-.1.2-.1.1 0 .1 0 .2.1 1 .8 2.1 1.1 3.2 1.1.3 0 .6 0 .9-.1h.2c.3 0 .5-.1.8-.2h.1l.9-.3h.1c.3-.1.7-.3 1-.5 2.1-1.2 4.4-3.1 6.8-5.4l-1.8-2.7c-2.5 2.5-5 4.6-7.2 5.8-.3.2-.7.3-1 .5h-.1l-.9.3h-.1c-.3.1-.5.2-.8.2h-.2c-.3 0-.6.1-.9.1-1.1 0-2.2-.4-3.2-1.1-.1 0-.1-.1-.2-.1s-.1 0-.2.1c-.2.1-.1.2 0 .3.1.1.2.3.3.4 1.7 2.4 3.6 4.7 5.6 6.8-1.2-1.4-2.3-2.9-3.4-4.5z" fill="#f0c768"/><path d="M68.3 9.6C81 12.5 88 15.4 94.6 25.3 89.8 11.8 80.7 7.8 66.1 4.5l-4.5 8.8c1.5.2 2.9.5 4.3.9l2.4-4.6z" fill="#ffdb8b"/><path d="M79 27c3.7 4.9 5.9 11 5.9 17.6C84.9 60.8 71.6 74 55.4 74c-8.8 0-16.7-3.9-22.1-10 5.4 7.2 14 11.9 23.6 11.9 16.2 0 29.4-13.2 29.4-29.4.1-7.6-2.7-14.4-7.3-19.5z" fill="#ffd283"/><path d="M100.7 68c-.2-.2-.3-.1-.4 0-1.2.9-2.5 1.2-3.9 1.1-2.6 3.7-5.7 7.1-9.2 10-.2.2-.4.3-.6.5-.3.3-.7.5-1 .8-.5.4-1 .8-1.5 1.1-.2.1-.3.2-.5.4-1.2.8-2.4 1.6-3.7 2.3-.3.1-.5.3-.7.4-.3.2-.7.4-1 .6l-1.8.9c-.1.1-.3.1-.4.2-.6.3-1.2.6-1.8.8-.1 0-.2.1-.4.2-4.6 1.9-9.6 3.2-14.7 3.8h-.4c-.7.1-1.4.1-2.1.2H56c-.8 0-1.7.1-2.5.1h-3.1c-4-.2-7.9-.9-11.6-2 4.6 1.7 9.6 2.7 14.7 3h3.1c.9 0 1.7 0 2.5-.1h.6c.7 0 1.4-.1 2.1-.2h.4c5.2-.5 10.1-1.8 14.7-3.8.1 0 .2-.1.4-.2.6-.3 1.2-.5 1.8-.8.1-.1.3-.1.4-.2l1.8-.9c.3-.2.7-.4 1-.6.3-.1.5-.3.7-.4 1.3-.8 2.5-1.5 3.7-2.3.2-.1.3-.2.5-.4.5-.4 1-.8 1.5-1.1.3-.3.7-.5 1-.8.2-.2.4-.3.6-.5 3.6-3 6.8-6.5 9.5-10.4.3-.5.6-1 .9-1.4.1-.1.1-.1 0-.3z" fill="#e8a812"/><path d="m106 21.5-.3.1c1.9 5.5 2.9 11.3 2.9 17.2 0 9-2.5 18.2-6.6 25.6l.9.3c4-7.4 6.3-15.9 6.3-25 0-6.2-1-12.4-3.2-18.2z" fill="#fc6"/><path d="m108.9 18.1-.8-1.8-12.1 5C89.4 10.6 78.5 2.7 65.4.3L63.9 0l-6.6 13h-1.4L49.3 0l-1.5.3c-13 2.5-24 10.3-30.7 20.9l-12-4.9-.8 1.8C1.4 25 0 32.3 0 39.8c0 11.9 3.7 23 10 32.1 7.4 11.4 22.5 23.3 43.5 24.4h.4c.9 0 1.8.1 2.7.1s1.7 0 2.6-.1h.8c.6 0 1.1-.1 1.7-.1.3 0 .6-.1 1-.1l2.1-.3c.5-.1 1.1-.2 1.6-.3.2 0 .3-.1.5-.1 7.2-1.3 14-4 20-7.9l.9-.6c.2-.1.4-.3.6-.4 6.3-4.3 11.4-9.5 14.8-14.7 6.3-9.1 10-20.2 10-32.1 0-7.4-1.4-14.7-4.3-21.6zM66.1 4.5C85.4 8.8 99.2 26 99.2 45.9c0 6.7-1.6 13-4.3 18.6-2-1-4.4-3.2-7-5.7 1.5-3.8 2.4-8 2.4-12.4 0-16.8-12.5-30.8-28.7-33.1l4.5-8.8zM55.1 17c.6 0 1.2-.1 1.8-.1h1.4c.5 0 .9.1 1.4.1 14.9 1.4 26.6 14 26.6 29.3 0 16.2-13.2 29.4-29.4 29.4S27.5 62.5 27.5 46.3c0-15.1 11.4-27.5 26-29.2.6 0 1.1-.1 1.6-.1zm-8-12.5 4.5 8.9c-15.9 2.5-28.1 16.4-28.1 33 0 4.6.9 9 2.6 12.9-2.7 2.7-5.3 5.1-7.3 6.1C15.7 59.6 14 53 14 45.9 14 26 27.8 8.8 47.1 4.5zM4 39.8c0-6.3 1.1-12.5 3.3-18.3l7.9 3.2C11.9 31.1 10 38.3 10 45.9c0 6.8 1.5 13.2 4.1 19-1.1-.2-2.3.1-3.2.8C6.5 58 4 49.2 4 39.8zm96.7 28.5c-.3.5-.6.9-.9 1.4-2.7 3.9-5.9 7.4-9.5 10.4-.2.2-.4.3-.6.5-.3.3-.7.5-1 .8-.5.4-1 .8-1.5 1.1-.2.1-.3.2-.5.4-1.2.8-2.4 1.6-3.7 2.3-.3.1-.5.3-.7.4-.3.2-.7.4-1 .6l-1.8.9c-.1.1-.3.1-.4.2-.6.3-1.2.6-1.8.8-.1 0-.2.1-.4.2-4.6 1.9-9.6 3.2-14.7 3.8-.5.1-1 .1-1.5.1-.3 0-.7 0-1 .1h-.6c-.8 0-1.7.1-2.5.1h-3.1c-.5 0-1-.1-1.6-.1-16-1.4-30-10-38.7-22.5-.1-.1-.2-.3-.3-.4s-.1-.2 0-.3.2-.1.2-.1c.1 0 .1 0 .2.1 1 .8 2.1 1.1 3.2 1.1.3 0 .6 0 .9-.1h.2c.3 0 .5-.1.8-.2h.1l.9-.3h.1c.3-.1.7-.3 1-.5 2.3-1.2 4.7-3.3 7.2-5.8 5.8 10 16.6 16.7 29 16.7 12.5 0 23.5-6.9 29.2-17.2 2.4 2.3 4.7 4.3 6.9 5.4.3.2.7.3 1 .5h.1l.9.3h.2c.3.1.5.1.8.2h.2c1.5.2 2.9-.1 4.2-1.1.1 0 .2-.1.4 0s.2.1.1.2zm2.2-3.6c-1-.7-2.2-.9-3.4-.7 2.4-5.6 3.7-11.7 3.7-18.1 0-7.6-1.8-14.8-5.1-21.2l7.9-3.2c2.2 5.8 3.3 12 3.3 18.3-.1 9-2.3 17.5-6.4 24.9zM54.1 92.3h-.3.5-.2zm0 0h.2-.2z" fill="#242735"/></svg>