<svg xmlns="http://www.w3.org/2000/svg" width="92.7" height="96.3" xml:space="preserve" overflow="visible"><path d="M87.5 67.2c-5.7 9.7-22 25-41.4 25-18.7 0-34.6-14.4-40.8-24.1-.1-.1-.1-.1 0-.3.1-.1.1-.1.2-.1s.1 0 .1.1c3.6 2.7 7.7.3 12.3-3.9 5.9 9.5 16.4 15.9 28.4 15.9 12.2 0 22.9-6.6 28.7-16.3 4.4 3.9 8.3 6.1 12 3.5l.1-.1s.1 0 .2.1c.2.1.2.2.2.2z" fill="#a86a3d"/><path d="M75.8 46.4c0 3.6-.7 7.1-1.9 10.4-.2.6-.5 1.3-.8 1.9v.1c-.3.6-.6 1.3-.9 1.9-2.5 4.5-6.2 8.3-10.6 11s-9.6 4.2-15.1 4.2C35.6 75.9 26.1 70 21 61.2c-.7-1.2-1.3-2.5-1.9-3.8-1.3-3.4-2.1-7-2.1-10.9C17 31.4 28.4 19 43 17.3c.5-.1 1.1-.1 1.6-.1h3.2c.5 0 .9.1 1.4.1 14.9 1.2 26.6 13.8 26.6 29.1z" fill="#d1a687"/><path d="M88.8 46.4c0 6.1-1.3 11.9-3.7 17.2-.1.1-.2.1-.3.2-1.7 1.2-4.6-.9-7.8-3.9 1.8-4.1 2.8-8.6 2.8-13.4 0-8.4-3.1-16.4-8.8-22.5-5.6-6.1-13.2-10-21.5-10.7-.5-.1-1-.1-1.5-.1h-3.6c-.6 0-1.2.1-1.8.2C25.7 15.3 13 29.6 13 46.6c0 5 1.1 9.7 3 13.9-3.2 3.1-6.2 5.3-7.8 4.5C5.5 59.2 4 53 4 46.4 4 23 23 4 46.4 4s42.4 19 42.4 42.4z" fill="#b87443"/><path d="M69.8 28.6c.3 1.8.4 3.7.4 5.7 0 4.5-.8 8.9-2.4 12.9-.3.8-.6 1.6-1 2.4 0 0 0 .1-.1.1-.4.8-.8 1.6-1.2 2.3-3.1 5.6-7.7 10.3-13.2 13.7-5.5 3.3-12 5.2-18.8 5.2-1.3 0-2.6-.1-3.9-.2 4.7 3.3 10.5 5.2 16.7 5.2 5.5 0 10.7-1.5 15.1-4.2s8.1-6.5 10.6-11c.3-.6.6-1.2.9-1.9v-.1c.3-.6.6-1.3.8-1.9 1.2-3.2 1.9-6.7 1.9-10.4.2-6.7-2-12.9-5.8-17.8z" fill="#be977b"/><path d="M87.4 67c-.1-.1-.1-.1-.2-.1s-.1 0-.1.1c-2.2 1.5-4.4 1.4-6.8.3-6.7 9.6-22 23-40 23-3.5 0-7-.5-10.2-1.4 5 2.1 10.4 3.5 16.1 3.5 19.3 0 35.6-15.4 41.4-25-.1-.2-.1-.3-.2-.4z" fill="#996138"/><path d="M84.3 27.5C86 32.1 87 37.1 87 42.4c0 6.1-1.3 11.9-3.7 17.2-.1.1-.2.1-.3.2-1.2.9-3.1 0-5.3-1.8-.2.6-.5 1.2-.7 1.8 3.3 3 6.1 5.1 7.8 3.9.1-.1.2-.1.3-.2 2.3-5.3 3.7-11.1 3.7-17.2 0-6.7-1.6-13.1-4.5-18.8z" fill="#a86a3d"/><path d="M7 49.1C7 25.7 26 6.7 49.4 6.7c10.1 0 19.3 3.5 26.6 9.4C68.4 8.6 57.9 4 46.4 4 23 4 4 23 4 46.4 4 53 5.5 59.2 8.2 64.8c.5.3 1.1.2 1.8 0-1.9-4.9-3-10.2-3-15.7z" fill="#cb9976"/><path d="M24.2 64.4c-.7-1.2-1.3-2.5-1.9-3.8-1.3-3.4-2.1-7-2.1-10.9 0-15.1 11.4-27.5 26-29.2.5-.1 1.1-.1 1.6-.1h3.3c.5 0 .9.1 1.4.1 6.2.6 11.8 3.1 16.2 6.9C64 21.7 57 17.9 49.2 17.1c-.5 0-.9-.1-1.4-.1h-3.2c-.5 0-1.1.1-1.6.1-14.6 1.7-26 14.2-26 29.2 0 3.8.7 7.5 2.1 10.9.5 1.3 1.2 2.6 1.9 3.8 1.7 2.9 3.9 5.5 6.4 7.7-1.3-1.3-2.3-2.7-3.2-4.3z" fill="#e1c6b2"/><ellipse transform="rotate(-26.504 40.091 33.598)" cx="40.09" cy="33.6" rx="10.2" ry="4.6" fill="#e1c6b2"/><circle cx="29.8" cy="45.1" r="3.4" fill="#e1c6b2"/><path d="M7.4 70.9c.1 0 .1 0 0 0 3.8 2.9 8.1.6 12.7-3.7-1-1.2-1.4-1.8-2.3-3.2-4.6 4.2-8.7 6.6-12.3 3.9l-.1-.1s-.1 0-.2.1-.1.2 0 .3c.7 1.1 1 1.6 1.9 2.8.2-.1.3-.1.3-.1z" fill="#bf9271"/><path d="M69.8 28.6c0 .2 0 .4.1.5 3.1 4.7 4.9 10.2 4.9 16.2 0 3.6-.7 7.1-1.9 10.4-.2.6-.5 1.3-.8 1.9v.1c-.3.6-.6 1.3-.9 1.9-2.5 4.5-6.2 8.3-10.6 11s-9.6 4.2-15.1 4.2-10.6-1.5-14.9-4.1c-.2 0-.5 0-.7-.1 4.7 3.3 10.5 5.2 16.7 5.2 5.5 0 10.7-1.5 15.1-4.2s8.1-6.5 10.6-11c.3-.6.6-1.2.9-1.9v-.1c.3-.6.6-1.3.8-1.9 1.2-3.2 1.9-6.7 1.9-10.4-.1-6.6-2.3-12.8-6.1-17.7z" fill="#d1a687"/><path d="M87.4 67c-.1-.1-.1-.1-.2-.1s-.1 0-.1.1c-.6.4-1.2.7-1.8.9-6.3 9.7-22.1 23.7-40.5 23.7-4.8 0-9.5-1-13.8-2.6-.3-.1-.6-.1-.9-.2 5 2.1 10.4 3.5 16.1 3.5 19.3 0 35.6-15.4 41.4-25-.1-.1-.1-.2-.2-.3z" fill="#a86a3d"/><path d="M84.3 27.5c.1.1.1.3.2.5 2.5 5.4 3.9 11.4 3.9 17.7 0 6.1-1.3 11.9-3.7 17.2-.1.1-.2.1-.3.2-1.6 1.1-4.3-.7-7.3-3.5 0 .1-.1.2-.1.3 3.3 3 6.1 5.1 7.8 3.9.1-.1.2-.1.3-.2 2.3-5.3 3.7-11.1 3.7-17.2 0-6.8-1.6-13.2-4.5-18.9z" fill="#b87443"/><path d="M89.4 63.6c2.1-5.3 3.3-11.1 3.3-17.2C92.8 20.8 72 0 46.4 0S0 20.8 0 46.4c0 6.3 1.3 12.4 3.6 17.9-.4.2-.7.4-1 .7-1.5 1.4-1.8 3.6-.7 5.3 8 12.5 25.2 26 44.2 26 21.1 0 38.4-16.1 44.8-27 1-1.7.7-3.8-.8-5.2-.2-.2-.4-.4-.7-.5zm-1.9 3.6c-5.7 9.7-22 25-41.4 25-18.7 0-34.6-14.4-40.8-24.1-.1-.1-.1-.1 0-.3.1-.1.1-.1.2-.1s.1 0 .1.1c3.6 2.7 7.7.3 12.3-3.9 5.9 9.5 16.4 15.9 28.4 15.9 12.2 0 22.9-6.6 28.7-16.3 4.4 3.9 8.3 6.1 12 3.5l.1-.1s.1 0 .2.1c.2.1.2.2.2.2zM16.9 46.4c0-15.1 11.4-27.5 26-29.2.5-.1 1.1-.1 1.6-.1h3.2c.5 0 .9.1 1.4.1 14.9 1.4 26.6 14 26.6 29.3 0 3.6-.7 7.1-1.9 10.4-.2.6-.5 1.3-.8 1.9v.1c-.3.6-.6 1.3-.9 1.9-2.5 4.5-6.2 8.3-10.6 11S51.9 76 46.4 76C35.5 76 26 70.1 20.9 61.3c-.7-1.2-1.3-2.5-1.9-3.8-1.3-3.6-2.1-7.3-2.1-11.1zm68.2 17.1c-.1.1-.2.1-.3.2-1.7 1.2-4.6-.9-7.8-3.9 1.8-4.1 2.8-8.6 2.8-13.4 0-8.4-3.1-16.4-8.8-22.5-5.6-6.1-13.2-10-21.5-10.7-.5-.1-1-.1-1.5-.1h-3.6c-.6 0-1.2.1-1.8.2C25.7 15.2 13 29.5 13 46.5c0 5 1.1 9.7 3 13.9-3.2 3.1-6.2 5.3-7.8 4.5C5.5 59.2 4 53 4 46.4 4 23 23 4 46.4 4s42.4 19 42.4 42.4c0 6.1-1.4 11.9-3.7 17.1z" fill="#1a181f"/></svg>