<svg xmlns="http://www.w3.org/2000/svg" width="170.53" height="144.94" xml:space="preserve" overflow="visible"><path d="M92.97 144.58c.48-.04.95-.08 1.43-.13 1.05-.11 2.1-.25 3.13-.4.82-.12 1.62-.26 2.43-.4.25-.04.51-.09.76-.14 10.9-2 21.08-6.08 30.11-11.82.48-.3.95-.6 1.42-.91.31-.21.63-.41.94-.62 9.5-6.4 17.12-14.24 22.29-22.18 9.48-13.74 15.05-30.38 15.05-48.3 0-11.31-2.18-22.29-6.48-32.65l-1.14-2.76-8.16 3.34c-6.57-15.49-17.28-22.08-17.87-22.43l-1.48-.88-11.26 6.27C116.57 5.58 107.93 2 98.5.22L97.34 0 85.27 7.64 73.19 0l-1.16.22a69.612 69.612 0 0 0-25.6 10.4L35.06 4.3l-1.48.89c-.59.35-11.28 6.92-17.85 22.39l-8.11-3.29-1.14 2.75C2.18 37.39 0 48.38 0 59.68c0 17.94 5.58 34.6 15.09 48.35 11.18 17.13 33.9 35.13 65.47 36.78l.6.03c1.35.06 2.72.1 4.11.1 1.3 0 2.58-.04 3.85-.1.42-.02.84-.04 1.26-.07.86-.04 1.73-.11 2.59-.19zm42.17-23.35c-.49.4-.99.79-1.49 1.17-.75.58-1.52 1.15-2.31 1.72-.24.18-.49.35-.74.52-1.75 1.22-3.59 2.4-5.52 3.53-.37.22-.74.43-1.12.64-.5.28-1.01.57-1.53.84-.89.47-1.78.94-2.69 1.38-.19.09-.39.18-.58.27-.92.44-1.86.86-2.8 1.27-.17.07-.35.15-.52.22a78.425 78.425 0 0 1-22.18 5.69l-.64.06c-1.03.1-2.06.18-3.09.24-.29.02-.57.04-.86.05-1.26.06-2.53.1-3.8.1-1.28 0-2.56-.04-3.83-.1l-.52-.03c-25.19-1.37-47.28-14.56-60.83-34.11-.12-.19-.25-.38-.37-.57-.09-.14-.18-.28.07-.5.12-.11.23-.15.32-.15.12 0 .21.07.28.12 2.61 1.96 5.46 2.11 8.51 1 .02-.01.04-.01.05-.02.22-.08.45-.17.67-.27.03-.01.06-.02.09-.04.22-.09.44-.19.65-.3l.12-.06c.22-.11.43-.22.65-.33.03-.02.06-.03.08-.04 3.4-1.84 7.04-4.98 10.9-8.75 8.71 15.05 24.98 25.21 43.59 25.21 18.9 0 35.4-10.48 44.01-25.93 7.99 7.68 15.1 12.54 21.34 8.11.1-.08.3-.21.58.05.23.21.15.33.08.46-.41.68-.86 1.4-1.34 2.13a79.817 79.817 0 0 1-14.32 15.66c-.31.27-.61.52-.91.76zM41.35 69.66c0-24.45 19.89-44.34 44.35-44.34s44.35 19.89 44.35 44.34a44.324 44.324 0 0 1-4.78 20c-7.32 14.43-22.3 24.35-39.56 24.35-16.98 0-31.75-9.59-39.2-23.64-.5-.93-.96-1.89-1.38-2.86a.3.3 0 0 0-.04-.08c-.43-.98-.83-1.98-1.19-3a43.822 43.822 0 0 1-2.55-14.77zm123.18-9.98c0 13.61-3.45 26.43-9.52 37.63a6.396 6.396 0 0 0-5.17-1.02 69.004 69.004 0 0 0 5.58-25.38c.33-12.19-2.45-23.77-7.66-33.95l3.47-1.42 1.94-.8 6.43-2.63c3.28 8.8 4.93 18.06 4.93 27.57zm-29.36-48.39c2.84 2.14 9.47 8.01 14 18.6l-4.4 1.8a69.496 69.496 0 0 0-15.3-17.24l5.7-3.16zM71.99 6.34l13.27 8.4 13.27-8.4a64.124 64.124 0 0 1 19.59 7.57c.93.55 1.85 1.12 2.75 1.71.07.04.14.09.2.13.91.6 1.81 1.23 2.68 1.88a63.69 63.69 0 0 1 16.98 18.99c.5.86.98 1.73 1.44 2.62 4.91 9.42 7.55 20.17 7.24 31.5-.25 9.34-2.56 18.23-6.48 26.22-2.96-1.49-6.64-4.78-10.52-8.61a50.094 50.094 0 0 0 3.61-18.7c0-27.76-22.58-50.34-50.35-50.34S35.35 41.9 35.35 69.66c0 6.91 1.4 13.49 3.93 19.49-4.06 4.06-8.01 7.66-11.06 9.25-4.66-8.97-7.14-18.98-7.14-29.42 0-10.68 2.65-20.83 7.37-29.78.47-.89.95-1.76 1.46-2.62.01-.02.03-.05.04-.07A64.253 64.253 0 0 1 46.79 17.7c1.8-1.34 3.67-2.59 5.61-3.74a63.849 63.849 0 0 1 19.59-7.62zm-36.71 4.95 5.83 3.25a70.265 70.265 0 0 0-15.25 17.15l-4.57-1.85c4.52-10.63 11.13-16.43 13.99-18.55zM10.93 32.1l2.73 1.1 5.58 2.26 3.62 1.47a69.804 69.804 0 0 0-7.77 32.04c0 9.93 2.17 19.7 6.2 28.65-1.7-.33-3.47.05-4.94 1.12A78.563 78.563 0 0 1 6 59.68c0-9.51 1.66-18.77 4.93-27.58z" fill="#242735"/><path d="m149.18 29.86-4.41 1.8a69.612 69.612 0 0 0-15.29-17.23l5.69-3.17c2.84 2.14 9.47 8 14.01 18.6z" fill="#1fb1ea"/><path d="M164.53 59.64c0 13.61-3.45 26.43-9.52 37.63a6.389 6.389 0 0 0-5.17-1.02 68.96 68.96 0 0 0 5.58-25.38c.33-12.19-2.45-23.77-7.66-33.95l3.47-1.42 1.95-.8 6.42-2.63c3.27 8.81 4.93 18.07 4.93 27.57z" fill="#33e2ff"/><path d="M130.04 69.63c0 4.88-.8 9.58-2.27 13.98-.69 2.07-1.53 4.08-2.51 6.01-7.33 14.43-22.3 24.35-39.56 24.35-16.98 0-31.75-9.59-39.2-23.64-.5-.93-.96-1.89-1.39-2.86-.01-.03-.02-.05-.03-.08-.43-.98-.83-1.98-1.19-2.99-.82-2.31-1.46-4.71-1.88-7.18-.44-2.47-.66-5.01-.66-7.59 0-24.46 19.89-44.35 44.35-44.35 24.45 0 44.34 19.89 44.34 44.35z" fill="#91edfa"/><path d="M151.7 102.67c-.4.68-.86 1.39-1.34 2.12a79.896 79.896 0 0 1-14.33 15.67c-.29.24-.59.49-.89.73-.5.4-1 .79-1.5 1.18-.75.57-1.52 1.15-2.31 1.71-.24.18-.49.35-.73.53-1.75 1.22-3.6 2.4-5.52 3.53-.38.22-.75.43-1.13.65-.5.28-1.01.56-1.52.84-.89.47-1.79.94-2.7 1.38l-.57.27c-.93.44-1.86.86-2.8 1.27-.17.07-.35.14-.52.22a78.762 78.762 0 0 1-22.18 5.69l-.65.06c-1.02.1-2.05.18-3.09.24-.29.02-.57.04-.86.05-1.26.06-2.52.1-3.8.1-1.28 0-2.56-.04-3.83-.1l-.52-.03c-25.19-1.37-47.28-14.56-60.83-34.11-.12-.19-.25-.38-.37-.57-.09-.14-.18-.27.06-.5.13-.11.23-.15.32-.15.12 0 .21.07.28.12 2.61 1.97 5.46 2.11 8.51 1 .02-.01.04-.01.05-.02.23-.08.45-.17.68-.27l.09-.03c.21-.1.43-.2.65-.3l.12-.06c.21-.1.43-.22.65-.33.03-.02.05-.03.08-.05 1.7-.92 3.46-2.16 5.28-3.65 1.81-1.49 3.69-3.21 5.62-5.1 8.72 15.05 24.99 25.21 43.6 25.21 18.9 0 35.4-10.48 44-25.92 8 7.68 15.1 12.54 21.34 8.11.11-.07.3-.21.58.05.23.21.16.33.08.46z" fill="#1fb1ea"/><path d="M15.08 68.94c0 9.94 2.17 19.7 6.2 28.65-1.71-.33-3.48.05-4.95 1.12A78.822 78.822 0 0 1 6 59.64c0-9.51 1.65-18.77 4.92-27.57l2.73 1.1 5.58 2.26 3.62 1.47a69.774 69.774 0 0 0-7.77 32.04z" fill="#33e2ff"/><path d="M41.11 14.5a70.22 70.22 0 0 0-15.25 17.14l-4.58-1.85c4.53-10.61 11.14-16.41 13.99-18.54l5.84 3.25z" fill="#1fb1ea"/><path d="M149.42 70.71c-.25 9.34-2.56 18.23-6.48 26.22-2.96-1.49-6.64-4.78-10.51-8.61a50.081 50.081 0 0 0 3.61-18.69c0-27.76-22.58-50.35-50.34-50.35S35.35 41.87 35.35 69.63c0 6.9 1.4 13.49 3.93 19.48-4.07 4.07-8.01 7.66-11.06 9.25-4.66-8.97-7.14-18.98-7.14-29.42 0-10.68 2.65-20.83 7.37-29.78.46-.88.95-1.76 1.46-2.62.01-.02.03-.05.04-.07.51-.86 1.03-1.7 1.58-2.53A64.076 64.076 0 0 1 46.8 17.66c1.79-1.34 3.67-2.59 5.61-3.74a63.498 63.498 0 0 1 19.58-7.61l13.27 8.39 13.28-8.39a63.852 63.852 0 0 1 22.34 9.28c.06.04.13.08.2.13.91.6 1.81 1.23 2.68 1.88a63.52 63.52 0 0 1 16.95 18.94 60.193 60.193 0 0 1 1.47 2.67c4.92 9.41 7.55 20.17 7.24 31.5z" fill="#1cc4ec"/><path d="M151.7 102.67c-.4.68-.86 1.39-1.34 2.12a79.896 79.896 0 0 1-14.33 15.67c-.29.24-.59.49-.89.73-.5.4-1 .79-1.5 1.18-.75.57-1.52 1.15-2.31 1.71-.24.18-.49.35-.73.53-1.75 1.22-3.6 2.4-5.52 3.53-.38.22-.75.43-1.13.65-.5.28-1.01.56-1.52.84-.89.47-1.79.94-2.7 1.38l-.57.27c-.93.44-1.86.86-2.8 1.27-.17.07-.35.14-.52.22a78.762 78.762 0 0 1-22.18 5.69l-.65.06c-1.02.1-2.05.18-3.09.24-.29.02-.57.04-.86.05-1.26.06-2.52.1-3.8.1-1.28 0-2.56-.04-3.83-.1l-.52-.03c-25.19-1.37-47.28-14.56-60.83-34.11-.12-.19-.25-.38-.37-.57-.09-.14-.18-.27.06-.5.13-.11.23-.15.32-.15.12 0 .21.07.28.12 2.61 1.97 5.46 2.11 8.51 1 .02-.01.04-.01.05-.02.23-.08.45-.17.68-.27l.09-.03c.21-.1.43-.2.65-.3l.12-.06c.21-.1.43-.22.65-.33.03-.02.05-.03.08-.05 1.7-.92 3.46-2.16 5.28-3.65 1.81-1.49 3.69-3.21 5.62-5.1 8.72 15.05 24.99 25.21 43.6 25.21 18.9 0 35.4-10.48 44-25.92 8 7.68 15.1 12.54 21.34 8.11.11-.07.3-.21.58.05.23.21.16.33.08.46z" fill="#1fb1ea"/><path d="M151.7 102.67c-.4.68-.86 1.39-1.34 2.12a79.896 79.896 0 0 1-14.33 15.67c-.29.24-.59.49-.89.73-.5.4-1 .79-1.5 1.18-.75.57-1.52 1.15-2.31 1.71-.24.18-.49.35-.73.53-1.75 1.22-3.6 2.4-5.52 3.53-.38.22-.75.43-1.13.65-.5.28-1.01.56-1.52.84-.89.47-1.79.94-2.7 1.38l-.57.27c-.93.44-1.86.86-2.8 1.27-.17.07-.35.14-.52.22a78.762 78.762 0 0 1-22.18 5.69l-.65.06c-1.02.1-2.05.18-3.09.24-.29.02-.57.04-.86.05-1.26.06-2.52.1-3.8.1-1.28 0-2.56-.04-3.83-.1l-.52-.03c-25.19-1.37-47.28-14.56-60.83-34.11-.12-.19-.25-.38-.37-.57-.09-.14-.18-.27.06-.5.13-.11.23-.15.32-.15.12 0 .21.07.28.12 2.61 1.97 5.46 2.11 8.51 1 .02-.01.04-.01.05-.02.23-.08.45-.17.68-.27l.09-.03c.21-.1.43-.2.65-.3l.12-.06c.21-.1.43-.22.65-.33.03-.02.05-.03.08-.05 1.7-.92 3.46-2.16 5.28-3.65 1.81-1.49 3.69-3.21 5.62-5.1 8.72 15.05 24.99 25.21 43.6 25.21 18.9 0 35.4-10.48 44-25.92 8 7.68 15.1 12.54 21.34 8.11.11-.07.3-.21.58.05.23.21.16.33.08.46z" fill="#1fb1ea"/><path d="M151.62 102.21c-.28-.26-.47-.12-.58-.05-3.63 2.58-7.55 2-11.77-.44a79.616 79.616 0 0 1-12.82 13.57c-.29.24-.59.49-.89.73-.5.4-1 .79-1.5 1.18-.75.57-1.52 1.15-2.31 1.71-.24.18-.49.35-.73.53-1.75 1.22-3.6 2.4-5.52 3.53-.38.22-.75.43-1.13.65-.5.28-1.01.56-1.52.84-.89.47-1.79.94-2.7 1.38l-.57.27c-.93.44-1.86.86-2.8 1.27-.17.07-.35.14-.52.22a78.762 78.762 0 0 1-22.18 5.69l-.65.06c-1.02.1-2.05.18-3.09.24-.29.02-.57.04-.86.05-1.26.06-2.52.1-3.8.1-1.28 0-2.56-.04-3.83-.1l-.52-.03a78.464 78.464 0 0 1-28.23-6.9c11.07 6.99 23.97 11.32 37.82 12.07l.52.03c1.27.06 2.55.1 3.83.1s2.54-.04 3.8-.1c.29-.01.57-.03.86-.05 1.04-.06 2.07-.14 3.09-.24l.65-.06c7.78-.82 15.23-2.78 22.18-5.69.17-.08.35-.15.52-.22.94-.41 1.87-.83 2.8-1.27l.57-.27c.91-.44 1.81-.91 2.7-1.38.51-.28 1.02-.56 1.52-.84.38-.22.75-.43 1.13-.65 1.92-1.13 3.77-2.31 5.52-3.53.24-.18.49-.35.73-.53.79-.56 1.56-1.14 2.31-1.71.5-.39 1-.78 1.5-1.18.3-.24.6-.49.89-.73a79.896 79.896 0 0 0 14.33-15.67c.48-.73.94-1.44 1.34-2.12.07-.13.14-.25-.09-.46z" fill="#1da2cc"/><path d="m159.6 32.07-3.69 1.51a79.121 79.121 0 0 1 3.75 24.13c0 13.38-3.34 26-9.23 37.07-.2.49-.38.98-.59 1.47 1.76-.41 3.64-.07 5.17 1.02 6.07-11.2 9.52-24.02 9.52-37.63 0-9.5-1.66-18.76-4.93-27.57z" fill="#2ed4e5"/><path d="m129.67 14.32-.19.11c.84.68 1.66 1.38 2.47 2.1-.74-.76-1.5-1.49-2.28-2.21zm6.86-1.98c2.99 3.17 6.54 7.87 9.32 14.35l-3.47 1.42c.83 1.16 1.64 2.34 2.4 3.55l4.41-1.8c-3.93-9.16-9.41-14.78-12.66-17.52z" fill="#1da2cc"/><path d="M108.57 31.64c6.23 7.64 9.97 17.38 9.97 27.99 0 4.88-.8 9.58-2.27 13.98-.69 2.07-1.53 4.08-2.51 6.01-7.33 14.43-22.3 24.35-39.56 24.35-8.37 0-16.19-2.34-22.88-6.38 8.14 9.99 20.52 16.38 34.38 16.38 17.26 0 32.23-9.92 39.56-24.35.98-1.93 1.82-3.94 2.51-6.01 1.47-4.4 2.27-9.1 2.27-13.98 0-16.1-8.61-30.22-21.47-37.99z" fill="#88dfe5"/><path d="M151.62 102.21c-.28-.26-.47-.12-.58-.05-.58.42-1.18.72-1.78.98-.01.01-.02.03-.03.04a79.896 79.896 0 0 1-14.33 15.67c-.29.24-.59.49-.89.73-.5.4-1 .79-1.5 1.18-.75.57-1.52 1.15-2.31 1.71-.24.18-.49.35-.73.53-1.75 1.22-3.6 2.4-5.52 3.53-.38.22-.75.43-1.13.65-.5.28-1.01.56-1.52.84-.89.47-1.79.94-2.7 1.38l-.57.27c-.93.44-1.86.86-2.8 1.27-.17.07-.35.14-.52.22a78.762 78.762 0 0 1-22.18 5.69l-.65.06c-1.02.1-2.05.18-3.09.24-.29.02-.57.04-.86.05-1.26.06-2.52.1-3.8.1-1.28 0-2.56-.04-3.83-.1l-.52-.03c-24.66-1.34-46.34-14.01-59.95-32.88.08.13.17.26.25.38 13.55 19.55 35.64 32.74 60.83 34.11l.52.03c1.27.06 2.55.1 3.83.1s2.54-.04 3.8-.1c.29-.01.57-.03.86-.05 1.04-.06 2.07-.14 3.09-.24l.65-.06c7.78-.82 15.23-2.78 22.18-5.69.17-.08.35-.15.52-.22.94-.41 1.87-.83 2.8-1.27l.57-.27c.91-.44 1.81-.91 2.7-1.38.51-.28 1.02-.56 1.52-.84.38-.22.75-.43 1.13-.65 1.92-1.13 3.77-2.31 5.52-3.53.24-.18.49-.35.73-.53.79-.56 1.56-1.14 2.31-1.71.5-.39 1-.78 1.5-1.18.3-.24.6-.49.89-.73a79.896 79.896 0 0 0 14.33-15.67c.48-.73.94-1.44 1.34-2.12.08-.13.15-.25-.08-.46zM43.8 97.49c-.59-.89-1.16-1.8-1.7-2.73l-.09.09c.57.89 1.17 1.77 1.79 2.64z" fill="#1fb1ea"/><path d="m159.6 32.07-.83.34c2.9 8.34 4.39 17.06 4.39 26 0 13.61-3.45 26.43-9.52 37.63-.98-.7-2.1-1.08-3.24-1.17-.19.46-.36.92-.55 1.38 1.76-.41 3.64-.07 5.17 1.02 6.07-11.2 9.52-24.02 9.52-37.63-.01-9.5-1.67-18.76-4.94-27.57z" fill="#33e2ff"/><path d="M117.43 38.69c6.15 7.61 9.84 17.29 9.84 27.82 0 4.88-.8 9.58-2.27 13.98-.69 2.07-1.53 4.08-2.51 6.01-7.33 14.43-22.3 24.35-39.56 24.35-12.45 0-23.7-5.17-31.76-13.46 8.13 10.1 20.58 16.58 34.53 16.58 17.26 0 32.23-9.92 39.56-24.35.98-1.93 1.82-3.94 2.51-6.01 1.47-4.4 2.27-9.1 2.27-13.98 0-12.03-4.81-22.94-12.61-30.94z" fill="#91edfa"/><path d="M52 96.69c-.5-.93-.96-1.89-1.39-2.86-.01-.03-.02-.05-.03-.08-.43-.98-.83-1.98-1.19-2.99-.82-2.31-1.46-4.71-1.88-7.18-.44-2.47-.66-5.01-.66-7.59 0-24.46 19.89-44.35 44.35-44.35 11.87 0 22.66 4.7 30.63 12.33-8.04-11.3-21.24-18.69-36.13-18.69-24.46 0-44.35 19.89-44.35 44.35 0 2.58.22 5.12.66 7.59.42 2.47 1.06 4.87 1.88 7.18.36 1.01.76 2.01 1.19 2.99.01.03.02.05.03.08.43.97.89 1.93 1.39 2.86 2.23 4.21 5.13 8 8.53 11.27-1.1-1.57-2.12-3.21-3.03-4.91z" fill="#b0f9ff"/><ellipse transform="rotate(-26.504 80.153 49.2)" cx="80.15" cy="49.2" rx="15.44" ry="6.87" fill="#b0f9ff"/><circle cx="64.56" cy="66.51" r="5.14" fill="#b0f9ff"/><path d="M25.08 74.04c0-10.68 2.65-20.83 7.37-29.78.46-.88.95-1.76 1.46-2.62.01-.02.03-.05.04-.07.51-.86 1.03-1.7 1.58-2.53A64.076 64.076 0 0 1 50.8 22.76c1.79-1.34 3.67-2.59 5.61-3.74a63.498 63.498 0 0 1 19.58-7.61l12.59 7.96c.41.02.81.06 1.22.09l12.74-8.05a63.852 63.852 0 0 1 22.34 9.28c.06.04.13.08.2.13.91.6 1.81 1.23 2.68 1.88a63.4 63.4 0 0 1 10.01 9.28 63.705 63.705 0 0 0-14.01-14.38c-.87-.65-1.77-1.28-2.68-1.88-.07-.05-.14-.09-.2-.13a63.852 63.852 0 0 0-22.34-9.28L85.26 14.7 71.99 6.31a63.498 63.498 0 0 0-19.58 7.61c-1.94 1.15-3.82 2.4-5.61 3.74a64.076 64.076 0 0 0-15.27 16.28c-.55.83-1.07 1.67-1.58 2.53-.01.02-.03.05-.04.07-.51.86-1 1.74-1.46 2.62a63.703 63.703 0 0 0-7.37 29.78c0 10.44 2.48 20.45 7.14 29.42.42-.22.87-.49 1.32-.78-2.92-7.39-4.46-15.33-4.46-23.54zm111.72 18.4a50.061 50.061 0 0 0 3.24-17.71c0-12.85-4.84-24.59-12.8-33.49 5.54 8.09 8.8 17.87 8.8 28.39 0 6.6-1.29 12.91-3.61 18.69 1.5 1.48 2.96 2.87 4.37 4.12z" fill="#33e2ff"/><path d="M23.33 108.86c.12 0 .21.07.28.12 2.61 1.97 5.46 2.11 8.51 1 .02-.01.04-.01.05-.02.23-.08.45-.17.68-.27l.09-.03c.21-.1.43-.2.65-.3l.12-.06c.21-.1.43-.22.65-.33.03-.02.05-.03.08-.05 1.7-.92 3.46-2.16 5.28-3.65 1.81-1.49 3.93-3.39 5.86-5.28-1.72-2.48-3.48-5.23-3.48-5.23-1.93 1.89-3.81 3.61-5.62 5.1-1.82 1.49-3.58 2.73-5.28 3.65-.03.02-.05.03-.08.05-.22.11-.44.23-.65.33l-.12.06c-.22.1-.44.2-.65.3l-.09.03c-.23.1-.45.19-.68.27-.01.01-.03.01-.05.02-3.05 1.11-5.9.97-8.51-1-.07-.05-.16-.12-.28-.12-.09 0-.19.04-.32.15-.24.23-.15.36-.06.5.12.19.25.38.37.57 1 1.44 2.05 2.85 3.14 4.22a.26.26 0 0 1 .11-.03z" fill="#1cc4ec"/><path d="M7.75 63.14c0-9.51 1.65-18.77 4.92-27.57l2.73 1.1 5.58 2.26.73.3c.37-.78.74-1.56 1.14-2.33l-3.62-1.47-5.58-2.26-2.73-1.1C7.65 40.87 6 50.13 6 59.64c0 13.42 3.37 26.07 9.28 37.16a78.893 78.893 0 0 1-7.53-33.66z" fill="#81f6fc"/><path d="m36.84 13.83 3.05 1.7c.41-.34.81-.69 1.22-1.03l-5.84-3.25c-2.85 2.13-9.46 7.93-13.99 18.54l2.31.93c4.49-9.56 10.55-14.87 13.25-16.89z" fill="#24cbff"/></svg>