<svg xmlns="http://www.w3.org/2000/svg" width="18.8" height="19.6" xml:space="preserve" overflow="scroll"><path d="M13.5 10.6c1.2-1.1 1.9-2.7 1.9-4.5 0-3.4-2.7-6.1-6.1-6.1C6 0 3.2 2.7 3.2 6.1c0 1 .3 2.1.8 3 .1.1.2.3.3.4.3.4.5.7.9 1C2.3 12 .3 14.9 0 18.2c0 .4.1.7.4 1s.6.4 1 .4h16c.4 0 .7-.2 1-.4s.4-.6.4-1c-.4-3.3-2.4-6.2-5.3-7.6zM7.8 9.2c-.1 0-.2-.1-.3-.2-.4-.3-.8-.6-1-1-.1 0-.1-.1-.2-.2-.3-.5-.4-1.1-.4-1.7 0-1.9 1.6-3.5 3.5-3.5s3.5 1.6 3.5 3.5-1.5 3.5-3.5 3.5c-.6 0-1.1-.1-1.6-.4zM2.9 17c.8-2.8 3.4-4.8 6.4-4.8 3 0 5.6 2 6.4 4.8H2.9z" fill="#fff"/></svg>